<svg xmlns="http://www.w3.org/2000/svg" aria-hidden="true" style="position:absolute;width:0;height:0;overflow:hidden">
  <defs>
    <symbol id="icon-Instagram" viewBox="0 0 32 32">
      <path d="M27.313 0H4.688A4.694 4.694 0 0 0 0 4.688v22.625a4.694 4.694 0 0 0 4.688 4.688h22.625a4.694 4.694 0 0 0 4.688-4.688V4.688A4.694 4.694 0 0 0 27.313 0zM16.062 24.375c-4.653 0-8.437-3.785-8.437-8.438s3.785-8.438 8.437-8.438c4.653 0 8.438 3.785 8.438 8.438s-3.785 8.438-8.438 8.438zm9.375-15c-1.551 0-2.812-1.262-2.812-2.813s1.262-2.813 2.812-2.813c1.551 0 2.813 1.262 2.813 2.813s-1.262 2.813-2.813 2.813z"/>
      <path d="M25.437 5.625a.938.938 0 1 0 .002 1.876.938.938 0 0 0-.002-1.876zM16.062 9.375c-3.618 0-6.562 2.944-6.562 6.563s2.944 6.562 6.562 6.562c3.618 0 6.563-2.944 6.563-6.562s-2.944-6.563-6.563-6.563z"/>
    </symbol>
    <symbol id="icon-Linkedin" viewBox="0 0 34 32">
      <path d="M29.263 0H5.022C2.253 0 0 2.078 0 4.631v22.351c0 2.553 2.253 4.631 5.022 4.631h24.241c2.769 0 5.022-2.078 5.022-4.631V4.631C34.285 2.078 32.032 0 29.263 0zM12.121 25.068H8.103V12.102h4.018v12.966zm0-14.819H8.103V6.544h4.018v3.705zm14.062 14.819h-4.018v-7.409c0-1.021-.901-1.852-2.009-1.852s-2.009.831-2.009 1.852v7.409h-4.018V12.102h4.018v.698c1.053-.302 1.736-.698 3.013-.698 2.725.003 5.022 2.257 5.022 4.92v8.046z"/>
    </symbol>
    <symbol id="icon-Twitter" viewBox="0 0 34 32">
      <path d="M34.286 6.004a15.626 15.626 0 0 1-4.05 1.023c1.457-.802 2.569-2.063 3.092-3.582a14.809 14.809 0 0 1-4.457 1.569c-1.29-1.266-3.129-2.051-5.134-2.051-3.891 0-7.024 2.912-7.024 6.483 0 .514.047 1.008.163 1.478-5.844-.263-11.014-2.845-14.488-6.779-.606.97-.962 2.08-.962 3.276 0 2.244 1.254 4.234 3.122 5.386a7.406 7.406 0 0 1-3.176-.798v.071c0 3.149 2.436 5.765 5.631 6.368a7.59 7.59 0 0 1-1.843.213c-.45 0-.904-.024-1.331-.111.911 2.567 3.495 4.454 6.568 4.515-2.391 1.725-5.428 2.764-8.715 2.764-.576 0-1.129-.024-1.682-.089 3.114 1.851 6.804 2.908 10.783 2.908 12.934 0 20.006-9.879 20.006-18.442 0-.287-.011-.563-.026-.838a13.48 13.48 0 0 0 3.523-3.365z"/>
    </symbol>
    <symbol id="icon-Facebook" viewBox="0 0 17 32">
      <path d="M14.169 5.308h3.165V.226c-.546-.069-2.424-.225-4.61-.225-4.563 0-7.688 2.646-7.688 7.51v4.476H.001v5.682h5.035v14.296h6.173V17.67h4.831l.767-5.682h-5.6V8.074c.001-1.642.481-2.766 2.962-2.766z"/>
    </symbol>
    <symbol id="icon-Ellipse-4" viewBox="0 0 32 32">
      <path d="M32 16c0 8.837-7.163 16-16 16S0 24.837 0 16 7.163 0 16 0s16 7.163 16 16z"/>
    </symbol>
  </defs>
</svg>
